# xmcd CD database file generated by Grip 3.2.0
# 
# Track frame offsets:
#       183
#       11695
#       25813
#       38285
#       50558
#       66035
#       79285
#       93070
#       106738
#       119740
#       132493
#       145555
#       158218
#       169750
#       176938
#       189263
#       200120
# 
# Disc length: 2830 seconds
# 
# Revision: 1
# Processed by: cddbd v1.5.2PL0 Copyright (c) Steve Scherf et al.
# Submitted via: Grip 3.2.0
# 
DISCID=e20b0c11
DTITLE=Little Walter and Sonny Boy Williamson - Sixteen Great Hits
DYEAR=1991
DGENRE=Blues
TTITLE0=Sonny Boy Williamson - The Key To Your Door
TTITLE1=Little Walter - Sad Hours
TTITLE2=Sonny Boy Williamson - "99"
TTITLE3=Sonny Boy Williamson - Trust My Baby
TTITLE4=Little Walter - Blue Mood
TTITLE5=Sonny Boy Williamson - Sad To Be Alone
TTITLE6=Little Walter - Confessin' The Blues
TTITLE7=Sonny Boy Williamson - Don't  Lose Your Eye
TTITLE8=Little Walter - Everybody Needs Somebody
TTITLE9=Sonny Boy Williamson - All My Love In Vain
TTITLE10=Sonny Boy Williamson - Let Me Explain
TTITLE11=Little Walter - I Got To Find My Baby
TTITLE12=Sonny Boy Williamson - Stop Crying (All Your Throwing Away Is Mine
TTITLE12=)
TTITLE13=Sonny Boy Williamson - I Wonder Why
TTITLE14=Little Walter - Tell Me Mama
TTITLE15=Sonny Boy Williamson - I Don't Know Why
TTITLE16=Sonny Boy Williamson - Santa Claus
EXTD=
EXTT0=
EXTT1=
EXTT2=
EXTT3=
EXTT4=
EXTT5=
EXTT6=
EXTT7=
EXTT8=
EXTT9=
EXTT10=
EXTT11=
EXTT12=
EXTT13=
EXTT14=
EXTT15=
EXTT16=
PLAYORDER=
